<svg width="16" height="16" viewBox="0 0 16 16" xmlns="http://www.w3.org/2000/svg"><path d="M1.6 11.992v1.085c.28.171 2.517 1.32 6.4 1.32 3.883 0 6.12-1.148 6.4-1.319v-1.086c0-1.373-3.046-2.441-3.263-2.522-.681 1.223-1.688 2.13-3.137 2.13-1.448 0-2.455-.906-3.136-2.128-.215.081-3.264 1.145-3.264 2.52zm2-7.849c0-2.288 1.97-4.143 4.4-4.143 2.43 0 4.4 1.855 4.4 4.143 0 .971-.17 2.461-.629 3.854 1.602.612 4.229 1.604 4.229 3.995v1.606c0 .884-3.452 2.402-8 2.402s-8-1.521-8-2.402v-1.606c0-2.4 2.628-3.382 4.23-3.993-.46-1.394-.63-2.885-.63-3.856zm4.4 5.857c1.576 0 2.8-2.894 2.8-5.857 0-1.382-1.233-2.543-2.8-2.543-1.567 0-2.8 1.161-2.8 2.543 0 2.963 1.224 5.857 2.8 5.857z" fill="#555" fill-rule="nonzero"/></svg>
